<svg width="16" height="34" viewBox="0 0 34 34" fill="none" xmlns="http://www.w3.org/2000/svg"><path d="M16.9989 8.75354C12.4387 8.75354 8.75831 12.4339 8.75831 16.9942C8.75831 21.5544 12.4387 25.2348 16.9989 25.2348C21.5592 25.2348 25.2396 21.5544 25.2396 16.9942C25.2396 12.4339 21.5592 8.75354 16.9989 8.75354ZM16.9989 22.35C14.0498 22.35 11.6431 19.9433 11.6431 16.9942C11.6431 14.0451 14.0498 11.6384 16.9989 11.6384C19.948 11.6384 22.3547 14.0451 22.3547 16.9942C22.3547 19.9433 19.948 22.35 16.9989 22.35ZM25.5771 6.4955C24.5123 6.4955 23.6525 7.35532 23.6525 8.42006C23.6525 9.48479 24.5123 10.3446 25.5771 10.3446C26.6418 10.3446 27.5016 9.48881 27.5016 8.42006C27.5019 8.16723 27.4524 7.91683 27.3558 7.68319C27.2592 7.44955 27.1174 7.23726 26.9386 7.05848C26.7599 6.87971 26.5476 6.73796 26.3139 6.64135C26.0803 6.54475 25.8299 6.49519 25.5771 6.4955ZM33.0623 16.9942C33.0623 14.7763 33.0824 12.5785 32.9579 10.3647C32.8333 7.79327 32.2467 5.51113 30.3664 3.63077C28.482 1.7464 26.2038 1.16381 23.6324 1.03925C21.4146 0.914699 19.2168 0.934789 17.003 0.934789C14.7851 0.934789 12.5873 0.914699 10.3735 1.03925C7.80206 1.16381 5.51992 1.75041 3.63956 3.63077C1.75519 5.51515 1.1726 7.79327 1.04804 10.3647C0.923489 12.5826 0.943578 14.7803 0.943578 16.9942C0.943578 19.208 0.923489 21.4098 1.04804 23.6236C1.1726 26.1951 1.7592 28.4772 3.63956 30.3576C5.52394 32.2419 7.80206 32.8245 10.3735 32.9491C12.5913 33.0736 14.7891 33.0535 17.003 33.0535C19.2208 33.0535 21.4186 33.0736 23.6324 32.9491C26.2038 32.8245 28.486 32.2379 30.3664 30.3576C32.2507 28.4732 32.8333 26.1951 32.9579 23.6236C33.0864 21.4098 33.0623 19.212 33.0623 16.9942ZM29.5266 26.4683C29.2333 27.1995 28.8797 27.7459 28.3132 28.3084C27.7467 28.875 27.2043 29.2285 26.473 29.5218C24.3597 30.3616 19.3413 30.1727 16.9989 30.1727C14.6565 30.1727 9.6342 30.3616 7.52081 29.5259C6.78956 29.2326 6.24313 28.879 5.68063 28.3125C5.11411 27.7459 4.76054 27.2035 4.46724 26.4723C3.63153 24.3549 3.82036 19.3366 3.82036 16.9942C3.82036 14.6518 3.63153 9.62943 4.46724 7.51604C4.76054 6.78479 5.11411 6.23836 5.68063 5.67586C6.24715 5.11336 6.78956 4.75577 7.52081 4.46247C9.6342 3.62675 14.6565 3.81559 16.9989 3.81559C19.3413 3.81559 24.3637 3.62675 26.4771 4.46247C27.2083 4.75577 27.7547 5.10934 28.3172 5.67586C28.8838 6.24238 29.2373 6.78479 29.5306 7.51604C30.3664 9.62943 30.1775 14.6518 30.1775 16.9942C30.1775 19.3366 30.3664 24.3549 29.5266 26.4683Z" fill="white" fill-opacity="0.85"/></svg>