<svg width="13" height="11" viewBox="0 0 13 11" fill="none" xmlns="http://www.w3.org/2000/svg"><path d="M12.75 1.5467C12.2759 1.75469 11.7706 1.89255 11.2439 1.95948C11.7858 1.63595 12.1994 1.12755 12.3938 0.51475C11.8886 0.815969 11.3308 1.02873 10.7363 1.14747C10.2566 0.636672 9.57286 0.320312 8.82698 0.320312C7.37986 0.320312 6.21483 1.49491 6.21483 2.93486C6.21483 3.14205 6.23236 3.34127 6.27539 3.53092C4.10231 3.42494 2.17945 2.38342 0.887719 0.796844C0.662203 1.18811 0.529922 1.63595 0.529922 2.11806C0.529922 3.02331 0.996094 3.82577 1.69097 4.29034C1.27102 4.28237 0.859031 4.16045 0.51 3.96841C0.51 3.97638 0.51 3.98673 0.51 3.99709C0.51 5.26731 1.41605 6.32237 2.60419 6.56542C2.39142 6.62359 2.15953 6.65148 1.91887 6.65148C1.75153 6.65148 1.58259 6.64192 1.42402 6.60686C1.76269 7.642 2.72372 8.40302 3.86644 8.42772C2.97713 9.12339 1.84795 9.54255 0.625547 9.54255C0.411188 9.54255 0.205594 9.53298 0 9.50669C1.15786 10.2534 2.53008 10.6797 4.00987 10.6797C8.81981 10.6797 11.4495 6.69531 11.4495 3.24166C11.4495 3.12611 11.4455 3.01455 11.4399 2.90378C11.9587 2.53562 12.3946 2.07583 12.75 1.5467Z" fill="#F7F7EE"/></svg>