<svg width="12" height="13" viewBox="0 0 12 13" fill="none" xmlns="http://www.w3.org/2000/svg"><path d="M11.9971 12.1248V12.1243H11.9999V7.98539C11.9999 5.96061 11.5684 4.40088 9.22517 4.40088C8.0987 4.40088 7.34275 5.02534 7.03413 5.61735H7.00155V4.58991H4.77979V12.1243H7.09325V8.39354C7.09325 7.41125 7.27758 6.4614 8.48179 6.4614C9.66832 6.4614 9.686 7.58241 9.686 8.45655V12.1248H11.9971Z" fill="#F7F7EE"/><path d="M0.917969 4.56934H3.26871V11.9574H0.917969V4.56934Z" fill="#F7F7EE"/><path d="M2.09328 0.875C1.35173 0.875 0.75 1.47392 0.75 2.21202C0.75 2.95012 1.35173 3.56157 2.09328 3.56157C2.83484 3.56157 3.43657 2.95012 3.43657 2.21202C3.4361 1.47392 2.83437 0.875 2.09328 0.875V0.875Z" fill="#F7F7EE"/></svg>