<svg width="7" height="13" viewBox="0 0 7 13" fill="none" xmlns="http://www.w3.org/2000/svg"><path d="M2.12935 7.30639C2.08237 7.30639 1.04872 7.30639 0.578886 7.30639C0.328306 7.30639 0.25 7.21242 0.25 6.9775C0.25 6.35105 0.25 5.70894 0.25 5.08249C0.25 4.83191 0.343968 4.7536 0.578886 4.7536H2.12935C2.12935 4.70662 2.12935 3.79827 2.12935 3.37541C2.12935 2.74896 2.23898 2.15384 2.5522 1.60569C2.88109 1.04189 3.35093 0.666018 3.94606 0.44676C4.33759 0.305809 4.72912 0.243164 5.15197 0.243164H6.68677C6.90603 0.243164 7 0.337132 7 0.556389V2.34177C7 2.56103 6.90603 2.655 6.68677 2.655C6.26392 2.655 5.84107 2.655 5.41821 2.67066C4.99536 2.67066 4.7761 2.87425 4.7761 3.31277C4.76044 3.78261 4.7761 4.23678 4.7761 4.72228H6.59281C6.84339 4.72228 6.93735 4.81625 6.93735 5.06683V6.96184C6.93735 7.21242 6.85905 7.29073 6.59281 7.29073C6.029 7.29073 4.82309 7.29073 4.7761 7.29073V12.3963C4.7761 12.6625 4.6978 12.7565 4.41589 12.7565C3.75812 12.7565 3.11601 12.7565 2.45824 12.7565C2.22332 12.7565 2.12935 12.6625 2.12935 12.4276C2.12935 10.7832 2.12935 7.35337 2.12935 7.30639Z" fill="#F7F7EE"/>                </svg>