<svg version="1.0" xmlns="http://www.w3.org/2000/svg" width="18" height="28" viewBox="0 0 900 920" preserveAspectRatio="xMidYMid meet"><g transform="translate(0,920) scale(0.1,-0.1)" fill="white" stroke="none"><path d="M4330 8423 c-424 -29 -657 -72 -991 -179 -1127 -363 -2036 -1271 -2403 -2399 -140 -432 -194 -798 -183 -1255 10 -420 66 -740 197 -1125 304 -893 958 -1655 1795 -2090 133 -70 150 -73 202 -39 55 35 58 49 64 329 8 341 -2 280 210 1180 28 121 57 245 64 275 7 30 27 116 45 190 83 347 108 471 121 608 14 144 7 303 -21 487 -33 209 -32 433 3 580 46 198 121 348 226 455 128 130 249 188 411 197 353 20 569 -243 530 -645 -16 -169 -40 -270 -158 -662 -179 -596 -196 -680 -169 -815 9 -42 30 -106 46 -142 58 -123 206 -247 353 -296 75 -24 275 -29 373 -8 314 65 569 259 765 581 199 328 296 689 307 1153 7 291 -18 474 -96 684 -157 425 -490 754 -917 906 -465 166 -1059 131 -1493 -87 -444 -224 -766 -633 -890 -1131 -116 -465 -30 -946 234 -1319 24 -33 35 -59 35 -83 0 -52 -110 -491 -127 -508 -71 -71 -373 145 -546 392 -151 215 -269 503 -328 803 -20 100 -23 146 -23 355 -1 187 3 264 18 350 66 400 205 743 419 1034 92 126 335 366 467 463 351 256 732 402 1230 474 228 33 600 37 805 9 300 -40 562 -118 820 -245 536 -262 929 -686 1132 -1220 101 -266 144 -510 144 -821 0 -728 -255 -1394 -706 -1845 -347 -347 -743 -531 -1210 -564 -347 -24 -662 72 -888 269 -50 43 -64 51 -99 51 -33 0 -46 -6 -72 -33 -26 -28 -37 -58 -70 -183 -206 -798 -209 -806 -377 -1152 -103 -212 -114 -250 -84 -296 21 -31 46 -40 187 -70 662 -142 1349 -102 1963 114 611 214 1183 600 1610 1085 414 471 706 1021 854 1610 118 468 134 1016 45 1515 -72 400 -209 788 -401 1130 -124 222 -191 323 -209 316 -8 -3 -11 0 -8 9 7 18 -27 71 -136 205 -113 139 -220 251 -233 243 -6 -3 -7 -2 -4 4 3 5 -7 26 -24 46 -38 46 -237 222 -350 310 -83 64 -108 79 -94 57 3 -6 -1 -7 -9 -4 -9 3 -16 14 -16 24 0 23 -113 103 -127 89 -11 -11 -56 18 -48 31 3 5 0 12 -6 16 -8 4 -9 3 -5 -4 12 -20 -13 -13 -55 15 -26 17 -36 29 -28 34 8 5 5 10 -10 18 -17 10 -21 9 -21 -4 0 -23 -38 0 -50 30 -5 14 -32 35 -72 54 -35 17 -54 25 -44 16 23 -17 5 -20 -26 -4 -14 7 -17 14 -9 18 6 4 -9 16 -37 29 -26 12 -38 16 -28 7 25 -19 16 -19 -33 1 -21 8 -41 23 -44 33 -3 12 -48 35 -135 69 -72 29 -134 52 -138 52 -3 0 -4 -7 0 -15 3 -8 1 -15 -4 -15 -6 0 -10 9 -10 19 0 16 -21 26 -107 55 -160 53 -462 126 -519 126 -15 0 -24 -6 -24 -15 0 -8 -5 -15 -11 -15 -6 0 -9 8 -6 19 4 16 -7 20 -117 35 -229 30 -457 41 -626 29z m710 -64 c0 -5 -12 -7 -27 -4 -16 2 -49 7 -75 10 -27 4 -48 9 -48 13 0 4 34 3 75 -2 41 -5 75 -13 75 -17z m1105 -339 c3 -5 1 -10 -4 -10 -6 0 -11 5 -11 10 0 6 2 10 4 10 3 0 8 -4 11 -10z m-715 -320 c0 -5 -5 -10 -11 -10 -5 0 -7 5 -4 10 3 6 8 10 11 10 2 0 4 -4 4 -10z"/></g></svg>