<svg width="80" height="80" viewBox="0 0 80 80" fill="none" xmlns="http://www.w3.org/2000/svg">
<g opacity="0.8">
<path d="M22.7368 33.525C22.7368 34.5 22.8418 35.2907 23.0274 35.8688C23.2374 36.4475 23.5012 37.08 23.8693 37.7638C23.9987 37.9738 24.0524 38.1838 24.0524 38.3694C24.0524 38.6307 23.8937 38.8944 23.5524 39.1575L21.8943 40.2638C21.6574 40.42 21.4206 40.5007 21.2112 40.5007C20.9474 40.5007 20.6837 40.3688 20.4199 40.1319C20.066 39.75 19.7488 39.3357 19.4724 38.8944C19.1796 38.3881 18.9077 37.8699 18.6574 37.3413C16.6062 39.7632 14.0262 40.9744 10.9199 40.9744C8.71057 40.9744 6.94807 40.3419 5.65682 39.0794C4.36745 37.815 3.71057 36.1307 3.71057 34.0257C3.71057 31.7894 4.49932 29.9732 6.1062 28.6063C7.70995 27.2363 9.8412 26.5525 12.5537 26.5525C13.4474 26.5525 14.3674 26.6307 15.3412 26.7625C16.3162 26.8944 17.3168 27.1044 18.3693 27.3413V25.42C18.3693 23.42 17.9468 22.0263 17.1318 21.2113C16.2881 20.3957 14.8674 20 12.8412 20C11.9206 20 10.9737 20.105 9.99932 20.3419C9.03191 20.5724 8.08221 20.8717 7.15745 21.2375C6.73495 21.4207 6.41995 21.5257 6.23682 21.5794C6.05182 21.6307 5.91995 21.6575 5.81495 21.6575C5.4462 21.6575 5.26307 21.3938 5.26307 20.8425V19.5532C5.26307 19.1307 5.31432 18.8157 5.4462 18.6307C5.57745 18.4475 5.81495 18.2644 6.1837 18.0788C7.1037 17.605 8.20995 17.21 9.4987 16.8944C10.7881 16.5525 12.1574 16.3944 13.6049 16.3944C16.7349 16.3944 19.0249 17.1044 20.4999 18.5257C21.9474 19.9463 22.6824 22.1044 22.6824 25V33.525H22.7368ZM12.0531 37.5269C12.9199 37.5269 13.8156 37.3682 14.7631 37.0532C15.7106 36.7357 16.5524 36.1575 17.2631 35.3688C17.6831 34.8688 18.0006 34.3163 18.1568 33.6844C18.3156 33.0519 18.4206 32.2907 18.4206 31.3938V30.2907C17.6234 30.0948 16.8156 29.9448 16.0012 29.8413C15.18 29.7377 14.3532 29.6855 13.5256 29.685C11.7631 29.685 10.4737 30.0269 9.60432 30.7375C8.73745 31.4475 8.31557 32.4463 8.31557 33.7625C8.31557 35 8.63057 35.9207 9.28932 36.5525C9.92182 37.2094 10.8424 37.5269 12.0531 37.5269ZM33.1837 40.3688C32.7099 40.3688 32.3949 40.2907 32.1849 40.105C31.9724 39.9463 31.7893 39.58 31.6306 39.08L25.4468 18.7375C25.2906 18.2107 25.2093 17.8688 25.2093 17.6832C25.2093 17.2632 25.4199 17.0269 25.8424 17.0269H28.4206C28.9206 17.0269 29.2624 17.1044 29.4481 17.29C29.6581 17.4463 29.8168 17.815 29.9731 18.315L34.3943 35.7375L38.5006 18.3157C38.6306 17.7907 38.7893 17.4469 38.9987 17.2907C39.2112 17.1313 39.5799 17.0263 40.0537 17.0263H42.1581C42.6581 17.0263 43.0006 17.1044 43.2106 17.29C43.4206 17.4463 43.6062 17.815 43.7106 18.315L47.8687 35.9475L52.4218 18.3157C52.5781 17.7907 52.7637 17.4469 52.9468 17.2907C53.1568 17.1313 53.5012 17.0263 53.9743 17.0263H56.4206C56.8431 17.0263 57.0799 17.2363 57.0799 17.6832C57.0799 17.8144 57.0531 17.9469 57.0262 18.1057C56.9993 18.2644 56.9481 18.4744 56.8431 18.7619L50.5006 39.1063C50.3418 39.6313 50.1587 39.9732 49.9462 40.1313C49.7362 40.2907 49.3943 40.3957 48.9474 40.3957H46.6849C46.1843 40.3957 45.8424 40.3144 45.6324 40.1319C45.4199 39.9463 45.2368 39.6044 45.1318 39.0794L41.0524 22.1044L36.9993 39.0525C36.8681 39.58 36.7118 39.9219 36.4993 40.105C36.2887 40.2907 35.9206 40.3688 35.4468 40.3688H33.1837ZM66.9993 41.0794C65.6324 41.0794 64.2624 40.9207 62.9468 40.6057C61.6306 40.2907 60.6056 39.9463 59.9218 39.5532C59.4993 39.3163 59.2112 39.0532 59.1062 38.8157C59.0025 38.5836 58.9484 38.3324 58.9474 38.0782V36.7357C58.9474 36.1844 59.1574 35.9207 59.5537 35.9207C59.7099 35.9207 59.8681 35.9475 60.0268 36.0013C60.1831 36.0525 60.4199 36.1575 60.6831 36.2625C61.6133 36.6711 62.5841 36.9803 63.5793 37.185C64.6312 37.395 65.6568 37.5 66.7112 37.5C68.3693 37.5 69.6581 37.2094 70.5518 36.6313C71.4474 36.0525 71.9212 35.21 71.9212 34.1313C71.9212 33.3938 71.6843 32.7907 71.2112 32.29C70.7374 31.79 69.8412 31.3425 68.5524 30.9207L64.7362 29.7363C62.8149 29.1307 61.3937 28.2375 60.5274 27.0532C59.6587 25.8938 59.2112 24.6044 59.2112 23.2375C59.2112 22.1313 59.4487 21.1575 59.9218 20.315C60.3916 19.4684 61.0376 18.7325 61.8162 18.1569C62.6049 17.5538 63.5012 17.1044 64.5537 16.7894C65.6056 16.4744 66.7112 16.3425 67.8687 16.3425C68.4474 16.3425 69.0524 16.3694 69.6312 16.4475C70.2368 16.5257 70.7887 16.6307 71.3424 16.7357C71.8674 16.8675 72.3681 16.9994 72.8418 17.1582C73.3156 17.3169 73.6843 17.4732 73.9481 17.6319C74.3168 17.8419 74.5799 18.0519 74.7362 18.2882C74.8949 18.5007 74.9731 18.7894 74.9731 19.1575V20.395C74.9731 20.9475 74.7631 21.2375 74.3674 21.2375C74.1574 21.2375 73.8156 21.1307 73.3693 20.9207C71.8674 20.2369 70.1831 19.895 68.3156 19.895C66.8162 19.895 65.6324 20.1319 64.8168 20.6325C63.9987 21.1307 63.5793 21.895 63.5793 22.9738C63.5793 23.7113 63.8424 24.3432 64.3674 24.8413C64.8949 25.3413 65.8693 25.8425 67.2631 26.2888L71.0006 27.4732C72.8956 28.0788 74.2631 28.9207 75.0781 30C75.8937 31.0794 76.2893 32.3169 76.2893 33.6844C76.2893 34.8169 76.0518 35.8425 75.6056 36.7357C75.1318 37.6319 74.4993 38.4207 73.6843 39.0525C72.8687 39.7094 71.8943 40.1832 70.7643 40.5275C69.5799 40.8938 68.3424 41.0794 66.9993 41.0794Z" fill="#252F3E"/>
<path d="M73.75 45.8424C70.98 45.8818 67.71 46.4999 65.2368 48.2374C64.4725 48.7893 64.6043 49.5262 65.4468 49.4212C68.2643 49.0793 74.4718 48.3424 75.5781 49.763C76.6843 51.1568 74.3431 57.0255 73.2887 59.6318C72.9737 60.4193 73.6575 60.7374 74.3675 60.1318C78.9987 56.2374 80.21 48.1055 79.2625 46.9212C78.7893 46.343 76.52 45.8024 73.75 45.8424ZM1.01871 47.4118C0.439334 47.4843 0.176834 48.1843 0.788709 48.7374C11.1062 58.0512 24.7631 63.6574 39.9218 63.6574C50.7375 63.6574 63.3156 60.2637 71.9725 53.8699C73.3931 52.8149 72.1581 51.2112 70.71 51.8674C61.0012 55.9737 50.4468 57.9737 40.8425 57.9737C26.6062 57.9737 12.8425 54.053 1.68433 47.578C1.44058 47.4337 1.21246 47.388 1.01933 47.4118H1.01871Z" fill="#FF9900"/>
</g>
</svg>
