<svg width="80" height="80" viewBox="0 0 80 80" fill="none" xmlns="http://www.w3.org/2000/svg">
<g opacity="0.8">
<path d="M26.841 2.79363H50.2105L25.9513 74.6712C25.7021 75.41 25.2275 76.052 24.5941 76.5068C23.9608 76.9616 23.2007 77.2061 22.421 77.206H4.23434C3.64368 77.2059 3.06154 77.0652 2.53599 76.7956C2.01044 76.5261 1.55656 76.1353 1.21184 75.6557C0.867228 75.176 0.641839 74.6211 0.554338 74.037C0.466836 73.4528 0.51974 72.8562 0.708669 72.2966L23.3107 5.32788C23.56 4.58909 24.0347 3.94707 24.668 3.49224C25.3013 3.03741 26.0613 2.79267 26.841 2.79248V2.79363Z" fill="url(#paint0_linear_2281_1744)"/>
<path d="M60.8 51.0044H23.7419C23.3973 51.0037 23.0605 51.1069 22.7754 51.3005C22.4903 51.4941 22.2702 51.7691 22.1438 52.0897C22.0173 52.4103 21.9904 52.7615 22.0665 53.0976C22.1427 53.4337 22.3184 53.739 22.5706 53.9738L46.3831 76.2C47.0765 76.8467 47.9893 77.2064 48.9375 77.2063H69.9212L60.8 51.0044Z" fill="#0078D4"/>
<path d="M26.8409 2.79373C26.0527 2.79077 25.2842 3.03989 24.6476 3.50471C24.0111 3.96953 23.5398 4.62569 23.3026 5.37738L0.736729 72.2358C0.535275 72.7975 0.472048 73.3994 0.552396 73.9907C0.632744 74.5819 0.854303 75.1451 1.19833 75.6327C1.54237 76.1202 1.99875 76.5177 2.52889 76.7916C3.05902 77.0655 3.64732 77.2077 4.24401 77.2061H22.9005C23.5953 77.082 24.2448 76.7756 24.7824 76.3184C25.3201 75.8611 25.7268 75.2693 25.9609 74.6035L30.4608 61.3412L46.5354 76.3336C47.2088 76.8908 48.0537 77.199 48.9277 77.2061H69.8336L60.6645 51.0043L33.9359 51.0106L50.2948 2.79373H26.8409Z" fill="url(#paint1_linear_2281_1744)"/>
<path d="M56.6896 5.32451C56.4407 4.58675 55.9666 3.94568 55.3341 3.49164C54.7016 3.03761 53.9426 2.79349 53.164 2.7937H27.1195C27.898 2.79378 28.6568 3.03802 29.2892 3.49203C29.9216 3.94603 30.3956 4.58693 30.6446 5.32451L53.2472 72.2961C53.4365 72.8558 53.4896 73.4526 53.4023 74.037C53.3151 74.6213 53.0898 75.1765 52.7453 75.6565C52.4008 76.1365 51.9468 76.5275 51.4211 76.7972C50.8954 77.0669 50.313 77.2074 49.7222 77.2072H75.7677C76.3584 77.2068 76.9404 77.0659 77.4658 76.796C77.9912 76.5261 78.4448 76.1351 78.7892 75.6553C79.1335 75.1755 79.3587 74.6205 79.4462 74.0364C79.5337 73.4523 79.4809 72.8558 79.2923 72.2961L56.6896 5.32451Z" fill="url(#paint2_linear_2281_1744)"/>
</g>
<defs>
<linearGradient id="paint0_linear_2281_1744" x1="35.3588" y1="8.30787" x2="11.0892" y2="80.0051" gradientUnits="userSpaceOnUse">
<stop stop-color="#114A8B"/>
<stop offset="1" stop-color="#0669BC"/>
</linearGradient>
<linearGradient id="paint1_linear_2281_1744" x1="42.9396" y1="41.7208" x2="37.326" y2="43.6186" gradientUnits="userSpaceOnUse">
<stop stop-opacity="0.3"/>
<stop offset="0.071" stop-opacity="0.2"/>
<stop offset="0.321" stop-opacity="0.1"/>
<stop offset="0.623" stop-opacity="0.05"/>
<stop offset="1" stop-opacity="0"/>
</linearGradient>
<linearGradient id="paint2_linear_2281_1744" x1="39.8522" y1="6.21655" x2="66.4929" y2="77.1917" gradientUnits="userSpaceOnUse">
<stop stop-color="#3CCBF4"/>
<stop offset="1" stop-color="#2892DF"/>
</linearGradient>
</defs>
</svg>
