<svg width="80" height="80" viewBox="0 0 80 80" fill="none" xmlns="http://www.w3.org/2000/svg">
<g opacity="0.8">
<path fill-rule="evenodd" clip-rule="evenodd" d="M46.125 31.75H53.1875V38.9375H56.75C58.375 38.9375 60.0625 38.625 61.625 38.125C62.375 37.875 63.25 37.5 64 37.0625C63 35.75 62.5 34.125 62.375 32.5C62.1875 30.3125 62.625 27.4375 64.125 25.75L64.875 24.875L65.75 25.5625C68 27.375 69.8125 29.8125 70.1875 32.6875C72.875 31.875 76 32.0625 78.375 33.4375L79.3125 34L78.8125 35C76.8125 38.875 72.625 40.125 68.5625 39.875C62.4375 55.0625 49.1875 62.25 33.0625 62.25C24.75 62.25 17.125 59.125 12.75 51.75L12.6875 51.625L12.0625 50.3125C10.5625 47.0625 10.125 43.5 10.4375 39.9375L10.5625 38.875H16.5625V31.75H23.625V24.75H37.6875V17.6875H46.125V31.75Z" fill="#3A4D54"/>
<path d="M69 34.4375C69.5 30.75 66.75 27.875 65 26.5C63.0625 28.75 62.75 34.75 65.8125 37.25C64.0625 38.75 60.5 40.1875 56.75 40.1875H11.625C11.25 44.0625 11.9375 47.625 13.5 50.6875L14 51.625C14.3125 52.1875 14.6875 52.6875 15.0625 53.25C16.9375 53.375 18.625 53.4375 20.1875 53.375C23.25 53.3125 25.75 52.9375 27.6875 52.3125C28 52.1875 28.25 52.375 28.375 52.625C28.5 52.9375 28.3125 53.1875 28.0625 53.3125C27.8125 53.375 27.5625 53.5 27.25 53.5625C25.75 54 24.125 54.25 22.0625 54.375H21.6875C20.875 54.4375 20 54.4375 19.0625 54.4375C18.0625 54.4375 17.125 54.4375 16 54.375C19.75 58.625 25.625 61.125 33 61.125C48.625 61.125 61.875 54.1875 67.6875 38.6875C71.875 39.125 75.875 38.0625 77.6875 34.5C74.875 32.8125 71.125 33.375 69 34.4375Z" fill="#00AADA"/>
<path d="M69 34.4375C69.5 30.75 66.75 27.875 65 26.5C63.0625 28.75 62.75 34.75 65.8125 37.25C64.0625 38.75 60.5 40.1875 56.75 40.1875H14.25C14.0625 46.125 16.25 50.625 20.1875 53.3125C23.25 53.25 25.75 52.875 27.6875 52.25C28 52.125 28.25 52.3125 28.375 52.5625C28.5 52.875 28.3125 53.125 28.0625 53.25C27.8125 53.3125 27.5625 53.4375 27.25 53.5C25.75 53.9375 24 54.25 21.9375 54.375L21.875 54.3125C27.1875 57.0625 34.875 57 43.75 53.625C53.625 49.8125 62.875 42.5625 69.3125 34.3125C69.1875 34.375 69.0625 34.375 69 34.4375Z" fill="#28B8EB"/>
<path d="M11.6875 44.875C11.9375 46.9375 12.5625 48.875 13.5 50.6875L14 51.625C14.3125 52.1875 14.6875 52.6875 15.0625 53.25C16.9375 53.375 18.625 53.4375 20.1875 53.375C23.25 53.3125 25.75 52.9375 27.6875 52.3125C28 52.1875 28.25 52.375 28.375 52.625C28.5 52.9375 28.3125 53.1875 28.0625 53.3125C27.8125 53.375 27.5625 53.5 27.25 53.5625C25.75 54 24 54.3125 21.9375 54.4375H21.6875C20.875 54.5 20 54.5 19.125 54.5C18.125 54.5 17.125 54.5 16.0625 54.4375C19.8125 58.6875 25.75 61.1875 33.125 61.1875C46.5 61.1875 58.125 56.125 64.875 44.9375H11.6875V44.875Z" fill="#028BB8"/>
<path d="M14.6875 44.875C15.5 48.5 17.375 51.375 20.1875 53.3125C23.25 53.25 25.75 52.875 27.6875 52.25C28 52.125 28.25 52.3125 28.375 52.5625C28.5 52.875 28.3125 53.125 28.0625 53.25C27.8125 53.3125 27.5625 53.4375 27.25 53.5C25.75 53.9375 24 54.25 21.875 54.375C27.1875 57.125 34.875 57.0625 43.6875 53.6875C49 51.625 54.1875 48.5625 58.8125 44.875H14.6875Z" fill="#019BC6"/>
<path fill-rule="evenodd" clip-rule="evenodd" d="M17.75 32.9375H23.875V39.0625H17.75V32.9375ZM18.25 33.4375H18.75V38.5H18.25V33.4375ZM19.125 33.4375H19.625V38.5H19.125V33.4375ZM20.0625 33.4375H20.5625V38.5H20.0625V33.4375ZM21 33.4375H21.5V38.5H21V33.4375ZM21.9375 33.4375H22.4375V38.5H21.9375V33.4375ZM22.875 33.4375H23.375V38.5H22.875V33.4375ZM24.75 25.9375H30.875V32.0625H24.75V25.9375ZM25.3125 26.4375H25.8125V31.5H25.3125V26.4375ZM26.1875 26.4375H26.6875V31.5H26.1875V26.4375ZM27.125 26.4375H27.625V31.5H27.125V26.4375ZM28.0625 26.4375H28.5625V31.5H28.0625V26.4375ZM28.9375 26.4375H29.4375V31.5H28.9375V26.4375ZM29.875 26.4375H30.375V31.5H29.875V26.4375Z" fill="#00ACD3"/>
<path fill-rule="evenodd" clip-rule="evenodd" d="M24.75 32.9375H30.875V39.0625H24.75V32.9375ZM25.3125 33.4375H25.8125V38.5H25.3125V33.4375ZM26.1875 33.4375H26.6875V38.5H26.1875V33.4375ZM27.125 33.4375H27.625V38.5H27.125V33.4375ZM28.0625 33.4375H28.5625V38.5H28.0625V33.4375ZM28.9375 33.4375H29.4375V38.5H28.9375V33.4375ZM29.875 33.4375H30.375V38.5H29.875V33.4375Z" fill="#23C2EE"/>
<path fill-rule="evenodd" clip-rule="evenodd" d="M31.8125 32.9375H37.9375V39.0625H31.8125V32.9375ZM32.3125 33.4375H32.8125V38.5H32.3125V33.4375ZM33.25 33.4375H33.75V38.5H33.25V33.4375ZM34.1875 33.4375H34.6875V38.5H34.1875V33.4375ZM35.0625 33.4375H35.5625V38.5H35.0625V33.4375ZM36 33.4375H36.5V38.5H36V33.4375ZM36.9375 33.4375H37.4375V38.5H36.9375V33.4375Z" fill="#00ACD3"/>
<path fill-rule="evenodd" clip-rule="evenodd" d="M31.8125 25.9375H37.9375V32.0625H31.8125V25.9375ZM32.3125 26.4375H32.8125V31.5H32.3125V26.4375ZM33.25 26.4375H33.75V31.5H33.25V26.4375ZM34.1875 26.4375H34.6875V31.5H34.1875V26.4375ZM35.0625 26.4375H35.5625V31.5H35.0625V26.4375ZM36 26.4375H36.5V31.5H36V26.4375ZM36.9375 26.4375H37.4375V31.5H36.9375V26.4375ZM38.875 32.9375H45V39.0625H38.875V32.9375ZM39.375 33.4375H39.875V38.5H39.375V33.4375ZM40.3125 33.4375H40.8125V38.5H40.3125V33.4375ZM41.1875 33.4375H41.6875V38.5H41.1875V33.4375ZM42.125 33.4375H42.625V38.5H42.125V33.4375ZM43.0625 33.4375H43.5625V38.5H43.0625V33.4375ZM44 33.4375H44.5V38.5H44V33.4375Z" fill="#23C2EE"/>
<path fill-rule="evenodd" clip-rule="evenodd" d="M38.875 25.9375H45V32.0625H38.875V25.9375ZM39.375 26.4375H39.875V31.5H39.375V26.4375ZM40.3125 26.4375H40.8125V31.5H40.3125V26.4375ZM41.1875 26.4375H41.6875V31.5H41.1875V26.4375ZM42.125 26.4375H42.625V31.5H42.125V26.4375ZM43.0625 26.4375H43.5625V31.5H43.0625V26.4375ZM44 26.4375H44.5V31.5H44V26.4375Z" fill="#00ACD3"/>
<path fill-rule="evenodd" clip-rule="evenodd" d="M38.875 18.875H45V25H38.875V18.875ZM39.375 19.375H39.875V24.4375H39.375V19.375ZM40.3125 19.375H40.8125V24.4375H40.3125V19.375ZM41.1875 19.375H41.6875V24.4375H41.1875V19.375ZM42.125 19.375H42.625V24.4375H42.125V19.375ZM43.0625 19.375H43.5625V24.4375H43.0625V19.375ZM44 19.375H44.5V24.4375H44V19.375Z" fill="#23C2EE"/>
<path fill-rule="evenodd" clip-rule="evenodd" d="M45.9375 32.9375H52.0625V39.0625H45.9375V32.9375ZM46.4375 33.4375H46.9375V38.5H46.4375V33.4375ZM47.3125 33.4375H47.8125V38.5H47.3125V33.4375ZM48.25 33.4375H48.75V38.5H48.25V33.4375ZM49.1875 33.4375H49.6875V38.5H49.1875V33.4375ZM50.125 33.4375H50.625V38.5H50.125V33.4375ZM51.0625 33.4375H51.5625V38.5H51.0625V33.4375Z" fill="#00ACD3"/>
<path fill-rule="evenodd" clip-rule="evenodd" d="M30.5 48.9375C31.4375 48.9375 32.1875 49.6875 32.1875 50.625C32.1875 51.5625 31.4375 52.3125 30.5 52.3125C29.5625 52.3125 28.8125 51.5625 28.8125 50.625C28.8125 49.6875 29.5625 48.9375 30.5 48.9375Z" fill="#D4EEF1"/>
<path fill-rule="evenodd" clip-rule="evenodd" d="M30.5 49.4375C30.625 49.4375 30.8125 49.4375 30.9375 49.5C30.8125 49.5625 30.6875 49.75 30.6875 49.9375C30.6875 50.1875 30.9375 50.4375 31.1875 50.4375C31.375 50.4375 31.5625 50.3125 31.625 50.1875C31.6875 50.3125 31.6875 50.5 31.6875 50.625C31.6875 51.3125 31.125 51.8125 30.5 51.8125C29.8125 51.8125 29.3125 51.25 29.3125 50.625C29.3125 50 29.8125 49.4375 30.5 49.4375ZM0.6875 45.5H79.0625C77.375 45.0625 73.6875 44.5 74.25 42.25C71.125 45.8125 63.6875 44.75 61.75 43C59.625 46.0625 47.375 44.875 46.5625 42.5C43.9375 45.625 35.75 45.625 33.125 42.5C32.25 44.875 20 46.0625 17.9375 43C16.0625 44.75 8.5625 45.8125 5.4375 42.25C6.125 44.4375 2.375 45.0625 0.6875 45.5Z" fill="#3A4D54"/>
<path d="M35 61.125C30.8125 59.125 28.5625 56.4375 27.25 53.5C25.6875 53.9375 23.8125 54.25 21.6875 54.375C20.875 54.4375 20 54.4375 19.125 54.4375C18.0625 54.4375 17 54.4375 15.875 54.375C19.625 58.125 24.375 61.0625 33.0625 61.125H35Z" fill="#BFDBE0"/>
<path d="M28.8125 56.1875C28.25 55.375 27.6875 54.4375 27.25 53.5C25.6875 53.9375 23.8125 54.25 21.6875 54.375C23.125 55.125 25.25 55.875 28.8125 56.1875Z" fill="#D4EEF1"/>
</g>
</svg>
