<svg width="80" height="80" viewBox="0 0 80 80" fill="none" xmlns="http://www.w3.org/2000/svg">
<g opacity="0.8">
<path d="M40.0001 55.05C48.312 55.05 55.0501 48.3118 55.0501 40C55.0501 31.6881 48.312 24.95 40.0001 24.95C31.6882 24.95 24.9501 31.6881 24.9501 40C24.9501 48.3118 31.6882 55.05 40.0001 55.05Z" fill="#4E8EF7"/>
<path d="M70.7126 14.4624C70.714 13.4699 70.4297 12.4979 69.8936 11.6627C69.3574 10.8274 68.5921 10.1641 67.6891 9.75219C66.7861 9.34023 65.7836 9.19698 64.8013 9.33956C63.8191 9.48213 62.8987 9.9045 62.1501 10.5562C54.693 4.94503 45.3857 2.37001 36.105 3.35036C26.8243 4.33071 18.2604 8.7935 12.1403 15.8389C6.02019 22.8842 2.79903 31.9881 3.12635 41.3147C3.45367 50.6413 7.30512 59.4969 13.9041 66.0959C20.5031 72.6949 29.3587 76.5463 38.6853 76.8736C48.0119 77.201 57.1158 73.9798 64.1611 67.8597C71.2065 61.7396 75.6693 53.1757 76.6496 43.895C77.63 34.6143 75.055 25.307 69.4438 17.8499C70.2624 16.9113 70.7132 15.7079 70.7126 14.4624ZM40.0001 75.6249C34.3557 75.6296 28.7911 74.293 23.7646 71.7253C18.7382 69.1576 14.3938 65.4323 11.0893 60.8564C7.78488 56.2805 5.61502 50.9849 4.75851 45.406C3.902 39.827 4.38335 34.1244 6.16292 28.7679C7.94248 23.4115 10.9693 18.5546 14.994 14.5973C19.0188 10.64 23.9262 7.69571 29.3119 6.00693C34.6977 4.31814 40.4076 3.93323 45.9713 4.88391C51.535 5.83459 56.7931 8.09364 61.3126 11.4749C60.6064 12.4705 60.2753 13.6839 60.378 14.9001C60.4807 16.1164 61.0105 17.2571 61.8736 18.1202C62.7367 18.9832 63.8773 19.513 65.0936 19.6157C66.3099 19.7184 67.5232 19.3874 68.5188 18.6812C72.4732 23.9754 74.8772 30.2652 75.4619 36.8473C76.0467 43.4294 74.7893 50.0444 71.8302 55.9529C68.8711 61.8614 64.327 66.8304 58.7058 70.3044C53.0847 73.7785 46.6081 75.6206 40.0001 75.6249Z" fill="#4E8EF7"/>
</g>
</svg>
