<svg width="80" height="80" viewBox="0 0 80 80" fill="none" xmlns="http://www.w3.org/2000/svg">
<g opacity="0.8">
<path d="M29.7606 61.325C29.7606 61.325 26.7813 63.0588 31.8838 63.6438C38.0663 64.35 41.2256 64.2488 48.0369 62.9613C48.0369 62.9613 49.8313 64.0832 52.3325 65.0557C37.0581 71.5994 17.765 64.6763 29.7606 61.325ZM27.8931 52.7844C27.8931 52.7844 24.5506 55.2588 29.6575 55.7875C36.2619 56.4694 41.4763 56.525 50.5038 54.7875C50.5038 54.7875 51.7494 56.0532 53.7113 56.7444C35.2475 62.1444 14.6825 57.1694 27.8931 52.7844Z" fill="#0074BD"/>
<path d="M43.6263 38.2944C47.3919 42.6287 42.6388 46.5256 42.6388 46.5256C42.6388 46.5256 52.1944 41.5937 47.8069 35.415C43.7075 29.6556 40.565 26.795 57.5788 16.9275C57.5788 16.9281 30.8719 23.5962 43.6263 38.2944Z" fill="#EA2D2E"/>
<path d="M63.8269 67.6431C63.8269 67.6431 66.0325 69.4619 61.3969 70.8675C52.5831 73.5375 24.7056 74.3425 16.9631 70.9744C14.1813 69.7631 19.4 68.0837 21.0419 67.7294C22.7538 67.3587 23.7313 67.4262 23.7313 67.4262C20.6356 65.2469 3.72314 71.7075 15.1419 73.5606C46.28 78.6081 71.9025 71.2875 63.8269 67.6431ZM31.195 43.9337C31.195 43.9337 17.0163 47.3019 26.1744 48.5262C30.0419 49.0437 37.7481 48.925 44.9313 48.3225C50.8 47.8294 56.6894 46.7762 56.6894 46.7762C56.6894 46.7762 54.6219 47.6631 53.1244 48.6844C38.7231 52.4725 10.9094 50.7081 18.9175 46.8356C25.6875 43.5612 31.195 43.9337 31.195 43.9337ZM56.6306 58.1506C71.2688 50.5462 64.5 43.2381 59.7756 44.2225C58.6206 44.4631 58.1025 44.6725 58.1025 44.6725C58.1025 44.6725 58.5325 43.9981 59.3525 43.7081C68.6981 40.4237 75.8844 53.3975 56.3381 58.5362C56.3381 58.535 56.5625 58.3319 56.6306 58.1506Z" fill="#0074BD"/>
<path d="M47.8069 0.991943C47.8069 0.991943 55.9119 9.10194 40.1175 21.5688C27.4512 31.5726 37.2294 37.2751 40.1131 43.7932C32.7187 37.1226 27.295 31.2494 30.9331 25.7838C36.2756 17.7626 51.0762 13.8719 47.8069 0.991943Z" fill="#EA2D2E"/>
<path d="M32.6337 78.7632C46.6812 79.6614 68.2587 78.2632 68.7694 71.6157C68.7694 71.6157 67.7875 74.1357 57.1587 76.1351C45.1675 78.3926 30.375 78.1295 21.6044 76.6813C21.6044 76.682 23.4012 78.1695 32.6337 78.7632Z" fill="#0074BD"/>
</g>
</svg>
