<svg width="80" height="80" viewBox="0 0 80 80" fill="none" xmlns="http://www.w3.org/2000/svg">
<g opacity="0.8">
<path d="M35.3026 34.4364C35.5338 34.6051 35.8151 34.7051 36.1213 34.7051C36.8713 34.7051 37.4838 34.1114 37.515 33.3739L37.5463 33.3551L38.0151 25.0676C37.4526 25.1364 36.8901 25.2301 36.3276 25.3551C33.2463 26.0551 30.5776 27.5739 28.4901 29.6239L35.2838 34.4426L35.3026 34.4364ZM34.3963 46.5801C34.3171 46.2293 34.1046 45.9229 33.8037 45.7259C33.5028 45.5288 33.1371 45.4563 32.7838 45.5239L32.7713 45.5051L24.6151 46.8864C25.8389 50.2751 28.1482 53.1645 31.1838 55.1051L34.3463 47.4676L34.3213 47.4364C34.4276 47.1739 34.4651 46.8801 34.3963 46.5801ZM31.6838 40.6989C31.9588 40.6239 32.2151 40.4614 32.4088 40.2239C32.8776 39.6364 32.7963 38.7926 32.2338 38.3051L32.2401 38.2739L26.0338 32.7239C24.1413 35.8055 23.3278 39.429 23.7213 43.0239L31.6776 40.7301L31.6838 40.6989ZM37.7088 43.1364L39.9963 44.2364L42.2838 43.1426L42.8463 40.6739L41.2651 38.6989H38.7276L37.1401 40.6739L37.7088 43.1364ZM42.4588 33.3426C42.4713 33.6301 42.5713 33.9114 42.7651 34.1489C43.2338 34.7364 44.0776 34.8426 44.6776 34.4051L44.7026 34.4176L51.4525 29.6301C48.9025 27.1364 45.5776 25.5051 41.9838 25.0676L42.4526 33.3426H42.4588ZM47.1963 45.4864C47.0901 45.4676 46.9838 45.4551 46.8776 45.4614C46.6963 45.4676 46.5151 45.5176 46.3463 45.5989C46.0227 45.7549 45.7718 46.0299 45.646 46.3664C45.5203 46.703 45.5293 47.0751 45.6713 47.4051L45.6588 47.4176L48.8526 55.1301C51.9338 53.1676 54.2338 50.2364 55.4401 46.8551L47.215 45.4614L47.1963 45.4864ZM41.2213 49.5739C41.0971 49.3461 40.9122 49.1571 40.6872 49.028C40.4621 48.899 40.2056 48.8348 39.9463 48.8426C39.4651 48.8614 39.0088 49.1301 38.765 49.5801H38.7588L34.7463 56.8301C37.6193 57.8069 40.7074 57.9649 43.6651 57.2864C44.215 57.1614 44.7526 57.0114 45.2713 56.8364L41.2526 49.5676H41.2213V49.5739Z" fill="#486BB3"/>
<path d="M77.84 47.9925L71.315 19.6613C71.1448 18.9264 70.8107 18.2395 70.3378 17.6519C69.8649 17.0642 69.2653 16.591 68.5838 16.2675L42.1838 3.65504C41.4202 3.29188 40.5782 3.12435 39.7338 3.16754C39.0621 3.20055 38.4036 3.36624 37.7963 3.65504L11.3963 16.2675C10.7159 16.5926 10.1173 17.0663 9.64457 17.6537C9.17184 18.2411 8.83709 18.9272 8.66503 19.6613L2.15878 47.9988C2.00764 48.6517 1.99065 49.3284 2.10882 49.9881C2.227 50.6477 2.47789 51.2765 2.84628 51.8363C2.93378 51.9738 3.03378 52.105 3.13378 52.2363L21.4088 74.955C21.8842 75.5445 22.486 76.0196 23.1697 76.3452C23.8534 76.6708 24.6015 76.8387 25.3588 76.8363L54.665 76.83C56.2025 76.83 57.6525 76.1363 58.615 74.9488L76.8838 52.2238C77.3515 51.636 77.6804 50.9502 77.846 50.2176C78.0115 49.4849 78.0095 48.7243 77.84 47.9925ZM67.7963 47.6488C67.6025 48.4925 66.6963 49.005 65.7588 48.805C65.7525 48.805 65.74 48.805 65.7338 48.7988C65.7213 48.7988 65.715 48.7925 65.7025 48.7863C65.5713 48.755 65.4088 48.73 65.2963 48.6988C64.7588 48.555 64.365 48.3363 63.8775 48.1488C62.8338 47.7738 61.965 47.4613 61.1213 47.3363C60.69 47.305 60.4713 47.505 60.2338 47.6613C60.1213 47.6363 59.765 47.5738 59.5588 47.5425C58.0463 52.2988 54.8213 56.4238 50.4525 58.9988C50.5275 59.18 50.6588 59.5675 50.715 59.6363C50.615 59.905 50.465 60.155 50.5963 60.5675C50.9025 61.3613 51.3963 62.1425 51.9963 63.0738C52.2838 63.505 52.5838 63.8363 52.8463 64.3363C52.9088 64.455 52.99 64.6363 53.0525 64.7613C53.4588 65.63 53.1588 66.63 52.3775 67.005C51.59 67.3863 50.615 66.9863 50.19 66.1113C50.1275 65.9863 50.0463 65.8238 49.9963 65.705C49.7713 65.1925 49.6963 64.755 49.54 64.255C49.1838 63.205 48.8838 62.3363 48.4588 61.5988C48.215 61.2425 47.9213 61.1988 47.6525 61.1113C47.6025 61.0238 47.415 60.68 47.315 60.505C46.44 60.8363 45.54 61.1113 44.6025 61.3238C40.5025 62.255 36.3963 61.88 32.7338 60.4675L32.3775 61.1175C32.1088 61.1863 31.8525 61.2613 31.6963 61.4488C31.1213 62.1363 30.89 63.2363 30.4713 64.2863C30.315 64.78 30.24 65.2238 30.015 65.7363C29.965 65.855 29.8775 66.0175 29.8213 66.1363V66.1425L29.815 66.1488C29.3963 67.0175 28.4213 67.4175 27.6338 67.0425C26.8525 66.6675 26.5588 65.6675 26.9588 64.7988C27.0213 64.6738 27.0963 64.4925 27.1588 64.3738C27.4213 63.88 27.715 63.5425 28.0088 63.1113C28.6088 62.1738 29.1338 61.3363 29.44 60.5425C29.515 60.28 29.4025 59.9175 29.3025 59.6488L29.59 58.9613C25.3838 56.4675 22.065 52.4988 20.4775 47.58L19.79 47.6988C19.6025 47.5925 19.2338 47.3488 18.8838 47.38C18.04 47.505 17.1713 47.8175 16.1275 48.1925C15.64 48.38 15.2525 48.5925 14.7088 48.7363C14.5963 48.7675 14.4338 48.7988 14.3025 48.83C14.29 48.83 14.2838 48.8363 14.2713 48.8425C14.265 48.8425 14.2525 48.8425 14.2463 48.8488C13.3088 49.0488 12.4025 48.5363 12.2088 47.6925C12.015 46.8488 12.615 45.9925 13.5463 45.7675C13.5525 45.7675 13.565 45.7613 13.5713 45.7613C13.5775 45.7613 13.5775 45.7613 13.5838 45.755C13.715 45.7238 13.8838 45.68 14.0088 45.655C14.5588 45.5488 15.0088 45.5738 15.5275 45.5363C16.6338 45.4175 17.5463 45.3238 18.3588 45.0675C18.615 44.9613 18.865 44.605 19.04 44.38L19.7025 44.1863C18.9588 39.0488 20.215 34.0113 22.9275 29.93L22.4213 29.48C22.39 29.28 22.3463 28.83 22.1025 28.5675C21.4838 27.9863 20.6963 27.4988 19.7525 26.9175C19.3025 26.655 18.89 26.4863 18.44 26.1488C18.3463 26.08 18.215 25.9675 18.115 25.8863C18.1088 25.88 18.0963 25.8738 18.09 25.8675C17.3338 25.2613 17.1588 24.2175 17.7025 23.5363C18.0088 23.155 18.4775 22.9613 18.9588 22.98C19.3338 22.9925 19.7275 23.13 20.0588 23.3925C20.165 23.48 20.315 23.5925 20.4088 23.6738C20.8338 24.0363 21.09 24.3988 21.4463 24.78C22.2275 25.5738 22.8713 26.23 23.5775 26.705C23.9463 26.9238 24.2338 26.8363 24.515 26.7988C24.6088 26.8675 24.9088 27.0863 25.0838 27.205C27.7713 24.3488 31.3088 22.2363 35.4088 21.305C36.365 21.0863 37.315 20.9425 38.265 20.8675L38.3025 20.1988C38.515 19.9925 38.7463 19.705 38.815 19.38C38.8838 18.53 38.7713 17.6175 38.64 16.5113C38.565 15.9988 38.4463 15.5675 38.4213 15.0113C38.415 14.8988 38.4213 14.7363 38.4275 14.605C38.4275 14.5925 38.4213 14.5738 38.4213 14.5613C38.4213 13.5925 39.1275 12.805 40.0025 12.805C40.8775 12.805 41.5838 13.5925 41.5838 14.5613C41.5838 14.6988 41.59 14.8863 41.59 15.0113C41.5713 15.5675 41.4463 15.9988 41.3713 16.5113C41.24 17.6113 41.1213 18.53 41.19 19.38C41.2525 19.805 41.5025 19.9738 41.7088 20.1675C41.715 20.28 41.7338 20.6613 41.7463 20.8738C46.7713 21.3175 51.4338 23.6175 54.865 27.2113L55.465 26.78C55.6713 26.7925 56.115 26.855 56.4213 26.6738C57.1275 26.1988 57.7713 25.5363 58.5525 24.7488C58.9088 24.3675 59.1713 24.0113 59.5963 23.6425C59.69 23.5613 59.84 23.4488 59.9463 23.3613C60.7025 22.755 61.7588 22.8238 62.3025 23.505C62.8463 24.1863 62.6713 25.23 61.915 25.8363C61.8088 25.9238 61.6713 26.0425 61.565 26.1175C61.115 26.4488 60.7025 26.6175 60.2525 26.8863C59.3088 27.4675 58.5213 27.955 57.9025 28.5363C57.6088 28.8488 57.6338 29.1488 57.6025 29.43C57.515 29.5113 57.2088 29.7863 57.04 29.93C58.4383 32.0106 59.4424 34.3304 60.0025 36.7738C60.5775 39.2675 60.665 41.755 60.3338 44.1488L60.9713 44.3363C61.0838 44.4988 61.3213 44.8925 61.6525 45.0238C62.465 45.28 63.3775 45.3738 64.4838 45.4925C65.0025 45.5363 65.4525 45.5113 66.0025 45.6113C66.1338 45.6363 66.3275 45.6863 66.4588 45.7175C67.3963 45.9488 67.99 46.805 67.7963 47.6488Z" fill="#486BB3"/>
<path d="M53.9213 32.7239L47.7463 38.2489L47.7525 38.2676C47.54 38.4551 47.3775 38.7051 47.3088 39.0051C47.14 39.7364 47.5838 40.4614 48.2963 40.6614L48.3025 40.6926L56.2963 42.9926C56.465 41.2676 56.365 39.4801 55.9525 37.6926C55.54 35.8864 54.8463 34.2176 53.9213 32.7239Z" fill="#486BB3"/>
</g>
</svg>
