<svg width="80" height="80" viewBox="0 0 80 80" fill="none" xmlns="http://www.w3.org/2000/svg">
<g opacity="0.8">
<path d="M0 39.9999C0 51.6205 17.9087 61.0418 40 61.0418C62.0913 61.0418 80 51.6205 80 39.9999C80 28.3793 62.0906 18.958 40 18.958C17.9087 18.958 0 28.3793 0 39.9999Z" fill="url(#paint0_radial_2281_1804)"/>
<path d="M40 59.4793C61.2281 59.4793 78.4375 50.7574 78.4375 39.9999C78.4375 29.2411 61.2281 20.5205 40 20.5205C18.7719 20.5205 1.5625 29.2411 1.5625 39.9999C1.5625 50.7574 18.7719 59.4793 40 59.4793Z" fill="#777BB3"/>
<path d="M21.7325 42.415C23.4781 42.415 24.7806 42.0931 25.605 41.4587C26.4213 40.83 26.9844 39.7418 27.28 38.2243C27.555 36.8056 27.45 35.8156 26.9675 35.2806C26.475 34.7343 25.4094 34.4575 23.8007 34.4575H21.0107L19.465 42.415H21.7325ZM12.6082 52.2168C12.5441 52.2167 12.4809 52.2025 12.4231 52.1751C12.3652 52.1477 12.3142 52.1078 12.2735 52.0584C12.2329 52.0089 12.2037 51.951 12.1881 51.889C12.1725 51.8269 12.1708 51.7621 12.1832 51.6993L16.2813 30.6131C16.3006 30.5145 16.3536 30.4257 16.4311 30.3618C16.5086 30.2978 16.6058 30.2627 16.7063 30.2625H25.54C28.3163 30.2625 30.3825 31.0162 31.6819 32.5031C32.9869 33.9968 33.3907 36.0868 32.88 38.7125C32.6719 39.7818 32.3144 40.775 31.8175 41.665C31.3003 42.5804 30.6403 43.4074 29.8625 44.115C28.9056 45.01 27.8225 45.66 26.6456 46.0418C25.4881 46.4193 24.0006 46.6106 22.2269 46.6106H18.6494L17.6281 51.8656C17.6089 51.9645 17.5558 52.0536 17.478 52.1177C17.4003 52.1818 17.3027 52.2168 17.2019 52.2168H12.6082Z" fill="black"/>
<path d="M21.3687 34.8913H23.8006C25.7425 34.8913 26.4169 35.3175 26.6462 35.5719C27.0256 35.9931 27.0981 36.8825 26.8531 38.1419C26.5787 39.5525 26.07 40.5531 25.3406 41.1144C24.5944 41.6894 23.3794 41.9806 21.7325 41.9806H19.9912L21.3694 34.8919L21.3687 34.8913ZM25.54 29.8288H16.7069C16.5054 29.8288 16.3103 29.8988 16.1547 30.0268C15.9992 30.1548 15.8931 30.3329 15.8544 30.5306L11.7562 51.6175C11.732 51.7431 11.7359 51.8725 11.7675 51.9965C11.7991 52.1204 11.8576 52.2359 11.939 52.3346C12.0204 52.4333 12.1226 52.5128 12.2382 52.5674C12.3539 52.622 12.4802 52.6504 12.6081 52.6506H17.2019C17.4033 52.6504 17.5984 52.5803 17.7538 52.4521C17.9091 52.324 18.0152 52.1458 18.0537 51.9481L19.0069 47.0444H22.2262C24.0462 47.0444 25.5787 46.8456 26.7806 46.4544C28.0162 46.0531 29.1531 45.3725 30.1594 44.4312C30.9696 43.6933 31.6571 42.831 32.1962 41.8769C32.7156 40.9475 33.0894 39.91 33.3056 38.795C33.8431 36.0306 33.4062 33.8175 32.0081 32.2175C30.6231 30.6319 28.4469 29.8281 25.54 29.8281V29.8288ZM18.9381 42.8481H21.7325C23.5844 42.8481 24.9637 42.5 25.87 41.8013C26.7769 41.1038 27.3875 39.9388 27.7062 38.3069C28.0094 36.7394 27.8712 35.6338 27.2906 34.9894C26.7087 34.3456 25.5462 34.0231 23.8006 34.0231H20.6531L18.9381 42.8481ZM25.5406 30.695C28.1981 30.695 30.1362 31.3931 31.355 32.7875C32.5737 34.1825 32.94 36.1294 32.455 38.6288C32.2537 39.6588 31.9156 40.6 31.4394 41.4525C30.9619 42.3062 30.3394 43.0863 29.57 43.7944C28.6525 44.6525 27.6344 45.2644 26.5125 45.6287C25.3912 45.9937 23.9625 46.1756 22.2269 46.1756H18.2919L17.2025 51.7819H12.6087L16.7075 30.695H25.5406Z" fill="white"/>
<path d="M43.4119 46.6106C43.3479 46.6107 43.2846 46.5966 43.2266 46.5693C43.1687 46.542 43.1175 46.5023 43.0767 46.4528C43.036 46.4034 43.0067 46.3456 42.9909 46.2835C42.9752 46.2214 42.9734 46.1566 42.9857 46.0938L44.7982 36.7637C44.9713 35.8762 44.9288 35.24 44.6794 34.97C44.5263 34.8056 44.0675 34.53 42.7107 34.53H39.4257L37.1469 46.26C37.1274 46.3588 37.0741 46.4477 36.9962 46.5115C36.9184 46.5754 36.8207 46.6102 36.72 46.61H32.1638C32.0998 46.61 32.0366 46.5959 31.9786 46.5687C31.9207 46.5415 31.8695 46.5018 31.8287 46.4524C31.788 46.4031 31.7586 46.3454 31.7427 46.2834C31.7268 46.2214 31.7248 46.1566 31.7369 46.0938L35.8357 25.0069C35.8551 24.9081 35.9082 24.8191 35.9859 24.7552C36.0637 24.6912 36.1612 24.6562 36.2619 24.6563H40.8182C40.8822 24.6562 40.9454 24.6703 41.0033 24.6976C41.0612 24.7248 41.1124 24.7645 41.1532 24.8138C41.194 24.8631 41.2234 24.9209 41.2393 24.9829C41.2551 25.0449 41.2571 25.1096 41.245 25.1725L40.2563 30.2625H43.7894C46.4813 30.2625 48.3063 30.7363 49.3694 31.7131C50.4525 32.7088 50.7913 34.3006 50.3744 36.4462L48.4675 46.26C48.448 46.3587 48.3948 46.4475 48.3171 46.5113C48.2394 46.5752 48.1419 46.61 48.0413 46.61H43.4119V46.6106Z" fill="black"/>
<path d="M40.8187 24.2219H36.2618C36.0603 24.222 35.8651 24.2921 35.7096 24.4202C35.554 24.5484 35.4479 24.7266 35.4093 24.9244L31.3112 46.0107C31.2869 46.1363 31.2907 46.2658 31.3222 46.3898C31.3538 46.5139 31.4123 46.6294 31.4937 46.7282C31.5751 46.8269 31.6773 46.9065 31.793 46.9612C31.9087 47.0158 32.0351 47.0443 32.1631 47.0444H36.72C36.9215 47.0444 37.1167 46.9743 37.2723 46.8461C37.4278 46.718 37.5339 46.5397 37.5725 46.3419L39.7831 34.9638H42.7093C44.0643 34.9638 44.3493 35.2532 44.36 35.2663C44.4425 35.3538 44.5506 35.7632 44.3719 36.6813L42.5593 46.0107C42.535 46.1364 42.5388 46.2659 42.5704 46.39C42.602 46.5141 42.6606 46.6296 42.742 46.7284C42.8235 46.8272 42.9258 46.9067 43.0416 46.9614C43.1574 47.016 43.2838 47.0444 43.4118 47.0444H48.0418C48.2433 47.0442 48.4384 46.9741 48.5937 46.8459C48.7491 46.7178 48.8552 46.5396 48.8937 46.3419L50.8006 36.5294C51.2475 34.2257 50.865 32.4982 49.6631 31.3938C48.5156 30.34 46.5944 29.8282 43.7894 29.8282H40.7831L41.6712 25.2563C41.6956 25.1305 41.692 25.001 41.6604 24.8768C41.6289 24.7526 41.5703 24.637 41.4888 24.5381C41.4073 24.4393 41.305 24.3597 41.1892 24.305C41.0733 24.2503 40.9468 24.222 40.8187 24.2219ZM40.8187 25.0907L39.7293 30.6957H43.7894C46.3437 30.6957 48.1062 31.1419 49.075 32.0332C50.0456 32.9244 50.3356 34.3675 49.9487 36.3644L48.0412 46.1763H43.4118L45.225 36.8463C45.4312 35.785 45.355 35.0613 44.9969 34.675C44.6387 34.2894 43.8762 34.0963 42.7106 34.0963H39.0675L36.72 46.1757H32.1625L36.2612 25.0888H40.8187V25.0907Z" fill="white"/>
<path d="M57.585 42.415C59.3306 42.415 60.6337 42.0931 61.4587 41.4587C62.2737 40.83 62.8375 39.7418 63.1331 38.2243C63.4081 36.8056 63.3037 35.8156 62.8206 35.2806C62.3281 34.7343 61.2625 34.4575 59.6537 34.4575H56.8644L55.3175 42.415H57.585ZM48.4625 52.2168C48.3984 52.2169 48.335 52.2028 48.277 52.1755C48.219 52.1482 48.1678 52.1083 48.127 52.0588C48.0863 52.0094 48.057 51.9514 48.0413 51.8893C48.0256 51.8271 48.0239 51.7622 48.0362 51.6993L52.1344 30.6131C52.1538 30.5143 52.2069 30.4253 52.2846 30.3614C52.3624 30.2974 52.4599 30.2624 52.5606 30.2625H61.3937C64.17 30.2625 66.2362 31.0162 67.535 32.5031C68.8406 33.9968 69.2437 36.0868 68.7331 38.7125C68.538 39.7467 68.1795 40.7433 67.6712 41.665C67.1538 42.5803 66.4939 43.4073 65.7162 44.115C64.76 45.01 63.6756 45.66 62.4994 46.0418C61.3419 46.4193 59.8544 46.6106 58.08 46.6106H54.5031L53.4825 51.8656C53.4632 51.9646 53.41 52.0538 53.3321 52.1179C53.2542 52.182 53.1565 52.2169 53.0556 52.2168H48.4625Z" fill="black"/>
<path d="M57.2218 34.8913H59.6537C61.5956 34.8913 62.2699 35.3175 62.4987 35.5719C62.8799 35.9931 62.9512 36.8825 62.7068 38.1419C62.4318 39.5525 61.9231 40.5531 61.1937 41.1144C60.4468 41.6894 59.2318 41.9806 57.5856 41.9806H55.8443L57.2218 34.8913ZM61.3931 29.8288H52.5599C52.3586 29.8289 52.1636 29.899 52.0082 30.027C51.8528 30.155 51.7467 30.333 51.7081 30.5306L47.6093 51.6175C47.5851 51.7432 47.589 51.8726 47.6206 51.9966C47.6522 52.1206 47.7109 52.2361 47.7923 52.3348C47.8738 52.4335 47.976 52.513 48.0917 52.5676C48.2075 52.6222 48.3338 52.6505 48.4618 52.6506H53.0556C53.257 52.6504 53.4521 52.5803 53.6075 52.4521C53.7629 52.324 53.8689 52.1458 53.9074 51.9481L54.8606 47.0444H58.0793C59.8987 47.0444 61.4318 46.8456 62.6331 46.4544C63.8693 46.0531 65.0062 45.3725 66.0131 44.4306C66.823 43.6928 67.5104 42.8308 68.0493 41.8769C68.5693 40.9475 68.9418 39.91 69.1587 38.795C69.6962 36.0306 69.2599 33.8175 67.8612 32.2175C66.4762 30.6319 64.3006 29.8281 61.3924 29.8281L61.3931 29.8288ZM54.7912 42.8481H57.5849C59.4374 42.8481 60.8162 42.5 61.7237 41.8013C62.6299 41.1038 63.2412 39.9388 63.5587 38.3069C63.8631 36.7394 63.7249 35.6338 63.1431 34.9894C62.5618 34.3456 61.3987 34.0231 59.6537 34.0231H56.5068L54.7912 42.8481ZM61.3931 30.695C64.0499 30.695 65.9893 31.3931 67.2074 32.7875C68.4262 34.1825 68.7931 36.1294 68.3068 38.6288C68.1068 39.6588 67.7681 40.6 67.2918 41.4525C66.8149 42.3062 66.1918 43.0863 65.4218 43.7944C64.5049 44.6525 63.4862 45.2644 62.3643 45.6287C61.2437 45.9937 59.8156 46.1756 58.0793 46.1756H54.1449L53.0543 51.7819H48.4606L52.5593 30.695H61.3931Z" fill="white"/>
</g>
<defs>
<radialGradient id="paint0_radial_2281_1804" cx="0" cy="0" r="1" gradientUnits="userSpaceOnUse" gradientTransform="translate(24.0162 26.3555) scale(52.5258 52.5258)">
<stop stop-color="#AEB2D5"/>
<stop offset="0.3" stop-color="#AEB2D5"/>
<stop offset="0.75" stop-color="#484C89"/>
<stop offset="1" stop-color="#484C89"/>
</radialGradient>
</defs>
</svg>
