<svg width="80" height="80" viewBox="0 0 80 80" fill="none" xmlns="http://www.w3.org/2000/svg">
<g opacity="0.8">
<path d="M39.6194 7.65504C36.9806 7.66754 34.4619 7.89191 32.2444 8.28441C25.7131 9.43816 24.5281 11.8532 24.5281 16.3075V22.1894H39.9613V24.15H18.7356C14.2506 24.15 10.3231 26.8457 9.09438 31.9757C7.67688 37.8538 7.61438 41.5225 9.09438 47.6607C10.1913 52.23 12.8113 55.485 17.2969 55.485H22.6038V48.4338C22.6038 43.3394 27.0106 38.8463 32.245 38.8463H47.6606C51.9519 38.8463 55.3769 35.3125 55.3769 31.0038V16.3082C55.3769 12.125 51.8481 8.98316 47.6606 8.28504C45.0081 7.84379 42.2575 7.64316 39.6194 7.65504ZM31.2731 12.3857C32.8669 12.3857 34.1694 13.7088 34.1694 15.3363C34.1694 16.9569 32.8675 18.2675 31.2731 18.2675C29.6731 18.2675 28.3775 16.9569 28.3775 15.3363C28.3769 13.7088 29.6731 12.3857 31.2731 12.3857Z" fill="url(#paint0_linear_2281_1813)"/>
<path d="M57.3012 24.15V31.0038C57.3012 36.3163 52.7962 40.7882 47.66 40.7882H32.2443C28.0218 40.7882 24.5281 44.4025 24.5281 48.6313V63.3282C24.5281 67.51 28.1643 69.9707 32.2443 71.17C37.1293 72.6057 41.8143 72.8657 47.66 71.17C51.545 70.0444 55.3762 67.7807 55.3762 63.3282V57.4457H39.9612V55.4844H63.0937C67.5787 55.4844 69.2512 52.3563 70.8112 47.66C72.4224 42.8257 72.3531 38.1763 70.8112 31.975C69.7024 27.5094 67.5856 24.1494 63.0937 24.1494L57.3012 24.15ZM48.6306 61.3669C50.2312 61.3669 51.5268 62.6775 51.5268 64.2994C51.5268 65.9257 50.2306 67.2488 48.6306 67.2488C47.0368 67.2488 45.735 65.9257 45.735 64.2994C45.735 62.6775 47.0368 61.3669 48.6306 61.3669Z" fill="url(#paint1_linear_2281_1813)"/>
<path opacity="0.444" d="M60.8181 74.7482C60.8181 76.9625 51.5581 78.7582 40.1362 78.7582C28.7137 78.7582 19.4537 76.9625 19.4537 74.7482C19.4537 72.5332 28.7131 70.7375 40.1362 70.7375C51.5581 70.7375 60.8181 72.5325 60.8181 74.7482Z" fill="url(#paint2_radial_2281_1813)"/>
</g>
<defs>
<linearGradient id="paint0_linear_2281_1813" x1="6.46055" y1="9.49418" x2="42.0567" y2="39.8504" gradientUnits="userSpaceOnUse">
<stop stop-color="#5A9FD4"/>
<stop offset="1" stop-color="#306998"/>
</linearGradient>
<linearGradient id="paint1_linear_2281_1813" x1="55.4492" y1="58.7203" x2="42.6839" y2="40.8189" gradientUnits="userSpaceOnUse">
<stop stop-color="#FFD43B"/>
<stop offset="1" stop-color="#FFE873"/>
</linearGradient>
<radialGradient id="paint2_radial_2281_1813" cx="0" cy="0" r="1" gradientUnits="userSpaceOnUse" gradientTransform="translate(40.0526 74.6333) rotate(-90) scale(4.01145 17.6337)">
<stop stop-color="#B8B8B8" stop-opacity="0.498"/>
<stop offset="1" stop-color="#7F7F7F" stop-opacity="0"/>
</radialGradient>
</defs>
</svg>
