<svg width="80" height="80" viewBox="0 0 80 80" fill="none" xmlns="http://www.w3.org/2000/svg">
<g opacity="0.8">
<path fill-rule="evenodd" clip-rule="evenodd" d="M68.5513 9.21053C60.9226 5.44615 53.1088 5.06303 45.1088 7.89115C37.7469 10.4937 31.8744 15.1505 27.5088 21.493C20.1219 32.2255 14.7563 43.9362 11.7494 56.6574C10.2094 63.168 9.21193 70.0737 9.48006 76.7974C9.50193 77.343 9.58318 77.4999 9.63693 78.7499H47.3657C47.2576 77.4999 47.1863 77.8649 47.0926 77.6268C45.0989 72.5192 43.5457 67.2504 42.4501 61.878C40.8888 54.2212 40.0713 46.4224 41.6838 38.6949C43.9407 27.8743 50.1088 20.0668 60.5069 16.018C66.3969 13.7262 71.9876 14.378 76.8907 18.6818C76.9357 18.7212 77.0282 18.6974 77.1482 18.7168L78.7513 16.2899C75.6638 13.3505 72.2713 11.0468 68.5513 9.21053ZM2.08506 58.9962C1.79756 61.448 1.52881 63.7437 1.24756 66.153L8.20506 66.988L9.47943 59.5549L2.08506 58.9962ZM15.7413 37.6299L9.19693 35.0693L7.08193 41.0737L13.7513 43.2112C14.4263 41.3168 15.0613 39.5349 15.7413 37.6299ZM46.6282 71.1668C48.8626 71.333 51.1013 71.4474 53.5676 71.5912C52.6719 69.7293 51.8763 68.0455 51.0432 66.3818C50.9519 66.2012 50.6438 66.0268 50.4344 66.0237C48.5388 65.9962 46.6419 66.008 44.6276 66.008C45.0813 67.6505 45.4757 69.1662 45.9376 70.6599C46.0069 70.8855 46.3794 71.1487 46.6282 71.1668ZM26.8332 19.4393L21.8613 16.1468L17.8869 20.5874L22.9982 24.0224L26.8332 19.4393ZM42.6669 52.7949C42.6588 52.9955 42.8394 53.3149 43.0157 53.3943C44.8063 54.1993 46.6157 54.9662 48.5857 55.8149C48.5038 54.2574 48.4488 52.9555 48.3557 51.6562C48.3388 51.4224 48.2288 51.0862 48.0557 50.9899C46.4113 50.0799 44.7438 49.2105 42.9207 48.243C42.8213 49.9087 42.7201 51.3505 42.6669 52.7949ZM41.1938 7.6874L37.7901 3.82428L33.1032 6.26053L36.5126 10.413L41.1938 7.6874ZM43.3282 38.4224C43.2263 38.6562 43.3607 39.1518 43.5613 39.3324C44.9207 40.5587 46.3263 41.7324 47.8901 43.0705C48.2482 41.5705 48.5857 40.2337 48.8719 38.8874C48.9226 38.648 48.8519 38.2524 48.6857 38.1187C47.4694 37.138 46.2138 36.2043 44.9126 35.2118C44.3407 36.3462 43.7863 37.3637 43.3282 38.4224ZM51.1094 5.6574C52.8469 5.70428 54.5863 5.68365 56.4213 5.68365C56.2382 4.40615 56.1507 3.43803 55.9326 2.50115C55.8676 2.2224 55.4482 1.85115 55.1651 1.8274C53.4232 1.68615 51.6744 1.63178 49.7582 1.54053C50.0138 2.8299 50.2088 3.96615 50.4844 5.08303C50.5426 5.3199 50.8888 5.65115 51.1094 5.6574ZM53.2251 27.9543C53.3138 27.788 53.3363 27.4862 53.2432 27.3412C52.3894 26.0055 51.5026 24.6905 50.5844 23.3068L47.6094 26.0393L51.7232 30.598C52.2757 29.6362 52.7701 28.8055 53.2251 27.9543ZM56.4344 18.8749L58.2113 22.1755C60.9919 20.6518 61.2582 20.1005 60.2738 17.9043L56.4344 18.8749ZM69.7388 8.70428C70.8957 9.41803 72.1176 10.0262 73.3588 10.6949L74.1901 9.40115C72.6763 8.29428 71.2151 7.22365 69.5569 6.0099C69.4919 6.6999 69.3951 7.18178 69.4201 7.65803C69.4401 8.02115 69.5007 8.55803 69.7388 8.70428ZM68.1251 19.1537C69.3751 19.2893 71.2501 19.4187 72.5001 19.5555V17.8568C71.2501 17.583 69.3751 17.3118 68.1251 17.0299V19.1537Z" fill="#CC0000"/>
</g>
</svg>
