<svg width="80" height="80" viewBox="0 0 80 80" fill="none" xmlns="http://www.w3.org/2000/svg">
<g opacity="0.8">
<path d="M78.9563 21.2874C78.9557 19.6437 78.7903 18.0043 78.4625 16.3937C78.1345 14.7448 77.577 13.1502 76.8063 11.6562C76.0008 10.2091 74.9997 8.87989 73.8313 7.70615C72.6262 6.52702 71.2264 5.56496 69.6938 4.8624C68.1812 4.09972 66.5634 3.56678 64.8938 3.28115C63.2375 2.9624 61.4188 2.9624 59.7625 2.80615H18.9062C17.6318 2.8269 16.3602 2.9334 15.1 3.1249C13.8495 3.27212 12.6253 3.59183 11.4625 4.0749C11.1312 4.23115 10.6375 4.39365 10.3062 4.5499C9.2061 5.13962 8.16034 5.82564 7.18125 6.5999C6.85 6.91865 6.51875 7.0749 6.1875 7.3874C4.96941 8.51721 3.96205 9.85471 3.2125 11.3374C2.39396 12.8104 1.83377 14.4127 1.55625 16.0749C1.30995 17.6969 1.14516 19.3302 1.0625 20.9687V58.7124C1.06301 60.3561 1.22843 61.9955 1.55625 63.6062C1.88424 65.255 2.44175 66.8496 3.2125 68.3437C4.01799 69.7907 5.01908 71.1199 6.1875 72.2937C7.3926 73.4728 8.79235 74.4348 10.325 75.1374C11.8375 75.9001 13.4553 76.433 15.125 76.7187C16.7812 77.0374 18.6 77.0374 20.2562 77.1937H59.7687C61.4901 77.1924 63.2077 77.0334 64.9 76.7187C66.5697 76.433 68.1875 75.9001 69.7 75.1374C71.1999 74.3784 72.5914 73.422 73.8375 72.2937C75.0556 71.1638 76.063 69.8263 76.8125 68.3437C77.6311 66.8706 78.1912 65.2683 78.4688 63.6062C78.7151 61.9842 78.8799 60.3509 78.9625 58.7124V21.2874H78.9563Z" fill="#F05138"/>
<path d="M53.125 60.3124C46.1813 64.1437 36.6375 64.5374 27.0313 60.6062C19.5414 57.5672 13.1375 52.3478 8.65002 45.6249C10.7355 47.2213 13.0139 48.5484 15.4313 49.5749C25.35 54.0124 35.2625 53.7062 42.2438 49.5749C32.3063 42.2874 23.8688 32.8124 17.5813 25.0749C16.3405 23.7673 15.233 22.3394 14.275 20.8124C21.875 27.4437 33.9625 35.8124 38.2625 38.1812C32.123 31.8904 26.481 25.1326 21.3875 17.9687C29.8545 26.1967 39.1713 33.5022 49.1813 39.7624C49.625 39.9999 49.9688 40.1999 50.2438 40.3874C50.5372 39.6711 50.7897 38.9386 51 38.1937C53.3188 30.1374 50.6688 20.9812 44.8813 13.3999C58.2813 21.1312 66.25 35.6562 62.9125 47.8187C62.825 48.1499 62.7313 48.4436 62.6313 48.7874L62.75 48.9249C69.3688 56.8186 67.55 65.1749 66.7188 63.6124C63.125 56.8749 56.4813 58.9562 53.125 60.3124Z" fill="#FEFEFE"/>
</g>
</svg>
